<?xml version="1.0" encoding="UTF-8"?>
<svg version="1.1" xmlns="http://www.w3.org/2000/svg" width="1344" height="768">
<path d="M0 0 C443.52 0 887.04 0 1344 0 C1344 253.44 1344 506.88 1344 768 C900.48 768 456.96 768 0 768 C0 514.56 0 261.12 0 0 Z " fill="#211634" transform="translate(0,0)"/>
<path d="M0 0 C7.92 0 15.84 0 24 0 C24 0.99 24 1.98 24 3 C25.65 3 27.3 3 29 3 C29 4.32 29 5.64 29 7 C29.99 7 30.98 7 32 7 C32 7.99 32 8.98 32 10 C32.99 10 33.98 10 35 10 C35.495 14.455 35.495 14.455 36 19 C36.66 19 37.32 19 38 19 C38 23.62 38 28.24 38 33 C36.35 33 34.7 33 33 33 C33 35.31 33 37.62 33 40 C31.68 40 30.36 40 29 40 C29 43.3 29 46.6 29 50 C28.01 50.495 28.01 50.495 27 51 C26.01 50.505 26.01 50.505 25 50 C25 51.65 25 53.3 25 55 C21.37 55.33 17.74 55.66 14 56 C13.67 57.65 13.34 59.3 13 61 C11.35 61 9.7 61 8 61 C8 60.34 8 59.68 8 59 C6.68 59 5.36 59 4 59 C4 57.35 4 55.7 4 54 C-1.61 54 -7.22 54 -13 54 C-13 52.68 -13 51.36 -13 50 C-15.31 50 -17.62 50 -20 50 C-20 48.68 -20 47.36 -20 46 C-21.98 45.67 -23.96 45.34 -26 45 C-25.67 43.68 -25.34 42.36 -25 41 C-23.35 41 -21.7 41 -20 41 C-20 39.68 -20 38.36 -20 37 C-19.01 37 -18.02 37 -17 37 C-17 34.69 -17 32.38 -17 30 C-15.68 30 -14.36 30 -13 30 C-13 27.69 -13 25.38 -13 23 C-12.01 22.67 -11.02 22.34 -10 22 C-10 18.37 -10 14.74 -10 11 C-8.68 11 -7.36 11 -6 11 C-6.0309375 9.2984375 -6.0309375 9.2984375 -6.0625 7.5625 C-6 4 -6 4 -5 3 C-3.33382885 2.95936168 -1.66611905 2.957279 0 3 C0 2.01 0 1.02 0 0 Z " fill="#362C4B" transform="translate(1032,63)"/>
<path d="M0 0 C2.64 0 5.28 0 8 0 C8 1.32 8 2.64 8 4 C9.32 4 10.64 4 12 4 C12.33 4.99 12.66 5.98 13 7 C17.29 7 21.58 7 26 7 C26 7.99 26 8.98 26 10 C27.32 10 28.64 10 30 10 C30 10.99 30 11.98 30 13 C31.32 13 32.64 13 34 13 C34 14.32 34 15.64 34 17 C34.99 17 35.98 17 37 17 C39.45125824 24.81338565 40.72686238 33.18813793 37.90234375 41.05859375 C36.4713776 43.7488101 35.17363449 45.86408585 33 48 C29.125 48.625 29.125 48.625 26 48 C25.67 49.32 25.34 50.64 25 52 C16.09 52 7.18 52 -2 52 C-2.495 50.515 -2.495 50.515 -3 49 C-4.32 49 -5.64 49 -7 49 C-7 48.01 -7 47.02 -7 46 C-7.598125 45.95875 -8.19625 45.9175 -8.8125 45.875 C-11 45 -11 45 -12.625 42.5625 C-14.40866982 37.94117364 -14.33134862 34.02322994 -14.1875 29.125 C-14.17396484 28.24585938 -14.16042969 27.36671875 -14.14648438 26.4609375 C-14.11136623 24.30702448 -14.05756694 22.15342996 -14 20 C-13.01 20 -12.02 20 -11 20 C-11 18.68 -11 17.36 -11 16 C-10.34 16 -9.68 16 -9 16 C-8.814375 15.071875 -8.814375 15.071875 -8.625 14.125 C-8 12 -8 12 -6 10 C-3.6171875 9.8046875 -3.6171875 9.8046875 -0.875 9.875 C0.49011719 9.90207031 0.49011719 9.90207031 1.8828125 9.9296875 C2.58148437 9.95289063 3.28015625 9.97609375 4 10 C4 9.01 4 8.02 4 7 C2.35 7 0.7 7 -1 7 C-0.67 4.69 -0.34 2.38 0 0 Z " fill="#5F3027" transform="translate(1060,685)"/>
<path d="M0 0 C0 2.31 0 4.62 0 7 C-0.99 7 -1.98 7 -3 7 C-3 8.32 -3 9.64 -3 11 C0.96 11 4.92 11 9 11 C9 12.32 9 13.64 9 15 C10.32 15 11.64 15 13 15 C13 16.65 13 18.3 13 20 C13.99 20 14.98 20 16 20 C16.02700675 22.91672884 16.04684237 25.83320677 16.0625 28.75 C16.07087891 29.575 16.07925781 30.4 16.08789062 31.25 C16.09111328 32.04921875 16.09433594 32.8484375 16.09765625 33.671875 C16.10289307 34.4050293 16.10812988 35.13818359 16.11352539 35.89355469 C15.9975109 38.0461849 15.59073271 39.9314135 15 42 C13.68 42 12.36 42 11 42 C11 43.65 11 45.3 11 47 C9.68 47 8.36 47 7 47 C7 47.99 7 48.98 7 50 C3.65613602 51.01085428 0.6251882 51.11543463 -2.859375 51.09765625 C-3.97441406 51.09443359 -5.08945313 51.09121094 -6.23828125 51.08789062 C-7.39714844 51.07951172 -8.55601563 51.07113281 -9.75 51.0625 C-10.92433594 51.05798828 -12.09867188 51.05347656 -13.30859375 51.04882812 C-16.20578072 51.03705094 -19.10286454 51.02060326 -22 51 C-22 50.01 -22 49.02 -22 48 C-23.65 48 -25.3 48 -27 48 C-27.33 46.68 -27.66 45.36 -28 44 C-28.66 44 -29.32 44 -30 44 C-30 42.35 -30 40.7 -30 39 C-31.32 39 -32.64 39 -34 39 C-34.02894547 35.54168414 -34.04678 32.08339928 -34.0625 28.625 C-34.07087891 27.64015625 -34.07925781 26.6553125 -34.08789062 25.640625 C-34.09111328 24.69960938 -34.09433594 23.75859375 -34.09765625 22.7890625 C-34.10289307 21.91975098 -34.10812988 21.05043945 -34.11352539 20.15478516 C-34 18 -34 18 -33 16 C-30.4375 15.375 -30.4375 15.375 -28 15 C-27.67 13.68 -27.34 12.36 -27 11 C-26.01 11 -25.02 11 -24 11 C-24 10.01 -24 9.02 -24 8 C-19.05 8 -14.1 8 -9 8 C-9 5.69 -9 3.38 -9 1 C-5.92677456 0.08941469 -3.19902639 -0.08886184 0 0 Z " fill="#5A2C27" transform="translate(1206,686)"/>
<path d="M0 0 C1.32 0 2.64 0 4 0 C4 1.98 4 3.96 4 6 C2.68 6 1.36 6 0 6 C0 7.98 0 9.96 0 12 C1.65 11.67 3.3 11.34 5 11 C5 10.67 5 10.34 5 10 C8.63 10 12.26 10 16 10 C16.495 12.475 16.495 12.475 17 15 C17.928125 15.2165625 17.928125 15.2165625 18.875 15.4375 C21 16 21 16 23 17 C23 18.32 23 19.64 23 21 C23.99 21 24.98 21 26 21 C26 27.6 26 34.2 26 41 C24.68 41 23.36 41 22 41 C22 42.32 22 43.64 22 45 C21.01 45 20.02 45 19 45 C18.67 46.32 18.34 47.64 18 49 C14.25 50.125 14.25 50.125 12 49 C12 49.99 12 50.98 12 52 C5.73 52 -0.54 52 -7 52 C-7 52.66 -7 53.32 -7 54 C-9.97 54 -12.94 54 -16 54 C-16.33 52.68 -16.66 51.36 -17 50 C-18.65 50 -20.3 50 -22 50 C-22.07405295 45.19453321 -22.12855497 40.3893971 -22.16479492 35.58349609 C-22.17989911 33.94802059 -22.20038389 32.31258571 -22.22631836 30.67724609 C-22.26263145 28.32899976 -22.27970932 25.98128795 -22.29296875 23.6328125 C-22.30845261 22.89942657 -22.32393646 22.16604065 -22.33988953 21.41043091 C-22.34057617 19.34814453 -22.34057617 19.34814453 -22 16 C-21.01 15.34 -20.02 14.68 -19 14 C-18.67 13.01 -18.34 12.02 -18 11 C-13.71 11 -9.42 11 -5 11 C-5 8.36 -5 5.72 -5 3 C-3.35 3 -1.7 3 0 3 C0 2.01 0 1.02 0 0 Z " fill="#562B25" transform="translate(22,600)"/>
<path d="M0 0 C6.6 0 13.2 0 20 0 C20.33 1.32 20.66 2.64 21 4 C22.32 4 23.64 4 25 4 C25 5.98 25 7.96 25 10 C26.32 10 27.64 10 29 10 C29 15.94 29 21.88 29 28 C29.99 28 30.98 28 32 28 C32 29.98 32 31.96 32 34 C32.99 34 33.98 34 35 34 C35 35.32 35 36.64 35 38 C33.02 38 31.04 38 29 38 C29 38.99 29 39.98 29 41 C27.35 41 25.7 41 24 41 C24 41.99 24 42.98 24 44 C19.71 44 15.42 44 11 44 C11 45.32 11 46.64 11 48 C8.03 48 5.06 48 2 48 C2 46.35 2 44.7 2 43 C1.01 43 0.02 43 -1 43 C-1 42.01 -1 41.02 -1 40 C-1.99 40 -2.98 40 -4 40 C-5.32229189 37.35541621 -5.09677194 35.32238699 -5.0625 32.375 C-5.05347656 31.37210937 -5.04445313 30.36921875 -5.03515625 29.3359375 C-5.01775391 28.17964844 -5.01775391 28.17964844 -5 27 C-5.99 27 -6.98 27 -8 27 C-8 21.39 -8 15.78 -8 10 C-7.01 10 -6.02 10 -5 10 C-5 8.35 -5 6.7 -5 5 C-3.35 5 -1.7 5 0 5 C0 3.35 0 1.7 0 0 Z " fill="#392C47" transform="translate(564,452)"/>
<path d="M0 0 C4.62 0 9.24 0 14 0 C14 0.99 14 1.98 14 3 C15.32 3 16.64 3 18 3 C18 3.99 18 4.98 18 6 C18.99 6 19.98 6 21 6 C21 7.32 21 8.64 21 10 C21.99 10 22.98 10 24 10 C24 18.91 24 27.82 24 37 C22.68 37 21.36 37 20 37 C20 38.65 20 40.3 20 42 C18.515 42.495 18.515 42.495 17 43 C17 44.32 17 45.64 17 47 C15.35 47 13.7 47 12 47 C11.505 44.525 11.505 44.525 11 42 C6.71 42 2.42 42 -2 42 C-2 43.32 -2 44.64 -2 46 C-5.465 46.495 -5.465 46.495 -9 47 C-9.495 45.515 -9.495 45.515 -10 44 C-9.34 44 -8.68 44 -8 44 C-8.495 43.401875 -8.99 42.80375 -9.5 42.1875 C-11 40 -11 40 -11 37 C-9.68 37 -8.36 37 -7 37 C-7 33.37 -7 29.74 -7 26 C-7.99 26 -8.98 26 -10 26 C-10 20.72 -10 15.44 -10 10 C-9.34 10 -8.68 10 -8 10 C-8 8.68 -8 7.36 -8 6 C-7.01 6 -6.02 6 -5 6 C-5 5.01 -5 4.02 -5 3 C-3.35 3 -1.7 3 0 3 C0 2.01 0 1.02 0 0 Z " fill="#3C2B44" transform="translate(629,697)"/>
<path d="M0 0 C5.28 0 10.56 0 16 0 C16 1.32 16 2.64 16 4 C18.475 4.495 18.475 4.495 21 5 C21 5.99 21 6.98 21 8 C21.99 8 22.98 8 24 8 C24 16.25 24 24.5 24 33 C24.99 33 25.98 33 27 33 C27 34.65 27 36.3 27 38 C25.02 38 23.04 38 21 38 C20.896875 38.639375 20.79375 39.27875 20.6875 39.9375 C20.460625 40.618125 20.23375 41.29875 20 42 C18.515 42.495 18.515 42.495 17 43 C17 43.99 17 44.98 17 46 C15.35 46 13.7 46 12 46 C12 45.01 12 44.02 12 43 C5.73 42.67 -0.54 42.34 -7 42 C-7 41.01 -7 40.02 -7 39 C-8.65 38.67 -10.3 38.34 -12 38 C-11.67 36.68 -11.34 35.36 -11 34 C-10.01 34 -9.02 34 -8 34 C-8 25.09 -8 16.18 -8 7 C-6.68 7 -5.36 7 -4 7 C-4 5.68 -4 4.36 -4 3 C-2.68 3 -1.36 3 0 3 C0 2.01 0 1.02 0 0 Z " fill="#372C4C" transform="translate(884,129)"/>
<path d="M0 0 C0.66 0 1.32 0 2 0 C2.51046875 1.17755859 2.51046875 1.17755859 3.03125 2.37890625 C8.05320028 13.26425062 13.78827324 18.82155554 25 23 C25 23.66 25 24.32 25 25 C24.21496094 25.3403125 23.42992187 25.680625 22.62109375 26.03125 C11.73574938 31.05320028 6.17844446 36.78827324 2 48 C1.34 48 0.68 48 0 48 C-0.3403125 47.21496094 -0.680625 46.42992187 -1.03125 45.62109375 C-6.05320028 34.73574938 -11.78827324 29.17844446 -23 25 C-23 24.34 -23 23.68 -23 23 C-22.21496094 22.6596875 -21.42992187 22.319375 -20.62109375 21.96875 C-9.73574938 16.94679972 -4.17844446 11.21172676 0 0 Z " fill="#8B8694" transform="translate(1287,688)"/>
<path d="M0 0 C2.64 0 5.28 0 8 0 C8 1.32 8 2.64 8 4 C9.32 4 10.64 4 12 4 C12.33 4.99 12.66 5.98 13 7 C17.29 7 21.58 7 26 7 C26 7.99 26 8.98 26 10 C27.32 10 28.64 10 30 10 C30 10.99 30 11.98 30 13 C31.32 13 32.64 13 34 13 C34 14.32 34 15.64 34 17 C34.99 17 35.98 17 37 17 C39.45125824 24.81338565 40.72686238 33.18813793 37.90234375 41.05859375 C36.4713776 43.7488101 35.17363449 45.86408585 33 48 C29.125 48.625 29.125 48.625 26 48 C25.67 49.32 25.34 50.64 25 52 C16.09 52 7.18 52 -2 52 C-2.495 50.515 -2.495 50.515 -3 49 C-4.32 49 -5.64 49 -7 49 C-7 48.01 -7 47.02 -7 46 C-7.99 45.67 -8.98 45.34 -10 45 C-3.4899015 45.89354293 -3.4899015 45.89354293 -0.59570312 46.52246094 C4.06736675 47.38033948 8.77122333 47.22638563 13.5 47.25 C15.04880859 47.2809375 15.04880859 47.2809375 16.62890625 47.3125 C23.85628189 47.44851433 23.85628189 47.44851433 30 44 C30.92167969 43.33613281 31.84335938 42.67226563 32.79296875 41.98828125 C36.08291175 37.53375666 35.5473686 33.56779757 35.3125 28.1875 C35.27866211 26.71893555 35.27866211 26.71893555 35.24414062 25.22070312 C35.18539727 22.81222545 35.10332129 20.40690922 35 18 C34.01 18 33.02 18 32 18 C32 16.68 32 15.36 32 14 C31.01 14 30.02 14 29 14 C29 13.01 29 12.02 29 11 C22.97363656 10.78085951 17.16422092 11.23166319 11.1875 11.9375 C10.44636963 12.02435059 9.70523926 12.11120117 8.94165039 12.20068359 C4.93652762 12.68404676 4.93652762 12.68404676 0.99731445 13.52954102 C-1.99766529 14.23499584 -4.93796932 14.05888521 -8 14 C-8 14.99 -8 15.98 -8 17 C-8.99 16.67 -9.98 16.34 -11 16 C-10.34 16 -9.68 16 -9 16 C-8.87625 15.38125 -8.7525 14.7625 -8.625 14.125 C-8 12 -8 12 -6 10 C-3.6171875 9.8046875 -3.6171875 9.8046875 -0.875 9.875 C0.49011719 9.90207031 0.49011719 9.90207031 1.8828125 9.9296875 C2.58148437 9.95289063 3.28015625 9.97609375 4 10 C4 9.01 4 8.02 4 7 C2.35 7 0.7 7 -1 7 C-0.67 4.69 -0.34 2.38 0 0 Z " fill="#401F29" transform="translate(1060,685)"/>
<path d="M0 0 C0 2.31 0 4.62 0 7 C-0.99 7 -1.98 7 -3 7 C-3 8.32 -3 9.64 -3 11 C-9.6 11 -16.2 11 -23 11 C-23.33 11.99 -23.66 12.98 -24 14 C-24.66 14 -25.32 14 -26 14 C-26.103125 14.639375 -26.20625 15.27875 -26.3125 15.9375 C-26.539375 16.618125 -26.76625 17.29875 -27 18 C-27.99 18.33 -28.98 18.66 -30 19 C-30.33 25.6 -30.66 32.2 -31 39 C-31.99 39 -32.98 39 -34 39 C-34.02894547 35.54168414 -34.04678 32.08339928 -34.0625 28.625 C-34.07087891 27.64015625 -34.07925781 26.6553125 -34.08789062 25.640625 C-34.09111328 24.69960938 -34.09433594 23.75859375 -34.09765625 22.7890625 C-34.10289307 21.91975098 -34.10812988 21.05043945 -34.11352539 20.15478516 C-34 18 -34 18 -33 16 C-30.4375 15.375 -30.4375 15.375 -28 15 C-27.67 13.68 -27.34 12.36 -27 11 C-26.01 11 -25.02 11 -24 11 C-24 10.01 -24 9.02 -24 8 C-19.05 8 -14.1 8 -9 8 C-9 5.69 -9 3.38 -9 1 C-5.92677456 0.08941469 -3.19902639 -0.08886184 0 0 Z " fill="#442227" transform="translate(1206,686)"/>
<path d="M0 0 C2.64 0 5.28 0 8 0 C8 4.62 8 9.24 8 14 C7.01 14.33 6.02 14.66 5 15 C5 15.99 5 16.98 5 18 C-1.6 18 -8.2 18 -15 18 C-15 16.35 -15 14.7 -15 13 C-15.99 13 -16.98 13 -18 13 C-18 11.68 -18 10.36 -18 9 C-16.35 9 -14.7 9 -13 9 C-13 9.99 -13 10.98 -13 12 C-6.73 11.67 -0.46 11.34 6 11 C5.67 9.35 5.34 7.7 5 6 C2.525 5.505 2.525 5.505 0 5 C0 3.35 0 1.7 0 0 Z " fill="#441E25" transform="translate(1202,709)"/>
<path d="M0 0 C1.65 0 3.3 0 5 0 C4.75 3.375 4.75 3.375 4 7 C2 8.3125 2 8.3125 0 9 C-0.33 9.66 -0.66 10.32 -1 11 C-3.64 10.67 -6.28 10.34 -9 10 C-9.33 10.66 -9.66 11.32 -10 12 C-11.32 11.67 -12.64 11.34 -14 11 C-14 10.34 -14 9.68 -14 9 C-15.98 9 -17.96 9 -20 9 C-20 8.01 -20 7.02 -20 6 C-20.99 6 -21.98 6 -23 6 C-23 4.35 -23 2.7 -23 1 C-21.35 1 -19.7 1 -18 1 C-17.67 2.32 -17.34 3.64 -17 5 C-16.01 5 -15.02 5 -14 5 C-14 4.01 -14 3.02 -14 2 C-10.7 2 -7.4 2 -4 2 C-3.67 2.99 -3.34 3.98 -3 5 C-2.34 5 -1.68 5 -1 5 C-0.67 3.35 -0.34 1.7 0 0 Z " fill="#3D1E24" transform="translate(31,634)"/>
<path d="M0 0 C1.98 0 3.96 0 6 0 C6 0.99 6 1.98 6 3 C5.34 3 4.68 3 4 3 C4 3.99 4 4.98 4 6 C3.360625 6.28875 2.72125 6.5775 2.0625 6.875 C-0.15206079 7.82823451 -0.15206079 7.82823451 -1 10 C-4.61867559 11.2062252 -7.92506251 11.10816918 -11.6875 11.0625 C-12.38939453 11.05798828 -13.09128906 11.05347656 -13.81445312 11.04882812 C-15.54300538 11.03706927 -17.27151365 11.01913454 -19 11 C-19 10.01 -19 9.02 -19 8 C-20.32 8 -21.64 8 -23 8 C-22.67 6.35 -22.34 4.7 -22 3 C-20.68 3 -19.36 3 -18 3 C-18 3.99 -18 4.98 -18 6 C-16.02 6 -14.04 6 -12 6 C-12 5.01 -12 4.02 -12 3 C-10.37509046 2.97301811 -8.75005367 2.95361243 -7.125 2.9375 C-5.76761719 2.92009766 -5.76761719 2.92009766 -4.3828125 2.90234375 C-2 3 -2 3 0 4 C0 2.68 0 1.36 0 0 Z " fill="#432125" transform="translate(1082,717)"/>
<path d="M0 0 C1.32 0 2.64 0 4 0 C4 1.98 4 3.96 4 6 C2.68 6 1.36 6 0 6 C0 7.98 0 9.96 0 12 C1.65 11.67 3.3 11.34 5 11 C5 10.67 5 10.34 5 10 C8.63 10 12.26 10 16 10 C16.495 10.99 16.495 10.99 17 12 C12.99679847 12.95377184 9.27788253 13.1157616 5.16796875 13.09765625 C3.87568359 13.09443359 2.58339844 13.09121094 1.25195312 13.08789062 C-0.10286526 13.07953665 -1.45768297 13.07107172 -2.8125 13.0625 C-4.18684735 13.05748 -5.56119645 13.05291797 -6.93554688 13.04882812 C-10.29040924 13.03705668 -13.64518221 13.02061283 -17 13 C-17.33 13.99 -17.66 14.98 -18 16 C-18.66 15.67 -19.32 15.34 -20 15 C-19.34 13.68 -18.68 12.36 -18 11 C-13.71 11 -9.42 11 -5 11 C-5 8.36 -5 5.72 -5 3 C-3.35 3 -1.7 3 0 3 C0 2.01 0 1.02 0 0 Z " fill="#3D2125" transform="translate(22,600)"/>
<path d="M0 0 C2 1.375 2 1.375 4 3 C4 3.66 4 4.32 4 5 C4.66 5 5.32 5 6 5 C6.33 5.66 6.66 6.32 7 7 C9.95857409 7.05379226 12.91617721 7.09357093 15.875 7.125 C17.13763672 7.15013672 17.13763672 7.15013672 18.42578125 7.17578125 C19.23144531 7.18222656 20.03710938 7.18867187 20.8671875 7.1953125 C21.61081543 7.20578613 22.35444336 7.21625977 23.12060547 7.22705078 C25.24490235 7.1665597 25.24490235 7.1665597 27 5 C27.515625 5.350625 28.03125 5.70125 28.5625 6.0625 C31.94006667 7.3615641 34.50468057 6.67217681 38 6 C36.68 6.33 35.36 6.66 34 7 C34 7.99 34 8.98 34 10 C30.65613602 11.01085428 27.6251882 11.11543463 24.140625 11.09765625 C23.02558594 11.09443359 21.91054687 11.09121094 20.76171875 11.08789062 C19.60285156 11.07951172 18.44398437 11.07113281 17.25 11.0625 C16.07566406 11.05798828 14.90132812 11.05347656 13.69140625 11.04882812 C10.79421928 11.03705094 7.89713546 11.02060326 5 11 C5 10.01 5 9.02 5 8 C3.35 8 1.7 8 0 8 C-0.12375 7.360625 -0.2475 6.72125 -0.375 6.0625 C-0.684375 5.0415625 -0.684375 5.0415625 -1 4 C-1.66 3.67 -2.32 3.34 -3 3 C-2.01 2.01 -1.02 1.02 0 0 Z " fill="#452027" transform="translate(1179,726)"/>
<path d="M0 0 C1.32 0 2.64 0 4 0 C4 0.66 4 1.32 4 2 C5.32 2 6.64 2 8 2 C8 5.3 8 8.6 8 12 C6.02 12 4.04 12 2 12 C2 12.99 2 13.98 2 15 C1.01 15 0.02 15 -1 15 C-1 13.68 -1 12.36 -1 11 C-1.99 11 -2.98 11 -4 11 C-4 8.03 -4 5.06 -4 2 C-2.68 2 -1.36 2 0 2 C0 1.34 0 0.68 0 0 Z " fill="#241939" transform="translate(1035,73)"/>
<path d="M0 0 C2.64 0 5.28 0 8 0 C8 1.32 8 2.64 8 4 C9.32 4 10.64 4 12 4 C11.67 5.98 11.34 7.96 11 10 C7.73871437 11.08709521 4.92583522 11.31945088 1.5 11.5625 C0.3553125 11.64628906 -0.789375 11.73007812 -1.96875 11.81640625 C-3.97641884 11.93800475 -5.9886521 12 -8 12 C-6 10 -6 10 -3.6171875 9.8046875 C-2.71226563 9.82789063 -1.80734375 9.85109375 -0.875 9.875 C0.49011719 9.90207031 0.49011719 9.90207031 1.8828125 9.9296875 C2.58148437 9.95289063 3.28015625 9.97609375 4 10 C4 9.01 4 8.02 4 7 C2.35 7 0.7 7 -1 7 C-0.67 4.69 -0.34 2.38 0 0 Z " fill="#2D2B28" transform="translate(1060,685)"/>
<path d="M0 0 C1.60488281 0.00676758 1.60488281 0.00676758 3.2421875 0.01367188 C5.86984986 0.02540251 8.49739538 0.04181772 11.125 0.0625 C11.125 1.0525 11.125 2.0425 11.125 3.0625 C4.855 3.0625 -1.415 3.0625 -7.875 3.0625 C-7.875 3.7225 -7.875 4.3825 -7.875 5.0625 C-10.845 5.0625 -13.815 5.0625 -16.875 5.0625 C-17.205 3.7425 -17.535 2.4225 -17.875 1.0625 C-11.93872979 -0.24183619 -6.04167748 -0.04836318 0 0 Z " fill="#411F22" transform="translate(22.875,648.9375)"/>
<path d="M0 0 C0.99 0 1.98 0 3 0 C3 0.66 3 1.32 3 2 C4.32 2 5.64 2 7 2 C7 5.3 7 8.6 7 12 C4.36 12.33 1.72 12.66 -1 13 C-1 11.68 -1 10.36 -1 9 C-1.66 9 -2.32 9 -3 9 C-3 7.35 -3 5.7 -3 4 C-2.01 4 -1.02 4 0 4 C0 2.68 0 1.36 0 0 Z " fill="#241938" transform="translate(1052,76)"/>
<path d="M0 0 C1.32 0 2.64 0 4 0 C4 1.65 4 3.3 4 5 C4.99 5 5.98 5 7 5 C7.02700675 7.91672884 7.04684237 10.83320677 7.0625 13.75 C7.07087891 14.575 7.07925781 15.4 7.08789062 16.25 C7.09111328 17.04921875 7.09433594 17.8484375 7.09765625 18.671875 C7.10289307 19.4050293 7.10812988 20.13818359 7.11352539 20.89355469 C6.9975109 23.0461849 6.59073271 24.9314135 6 27 C4.68 27 3.36 27 2 27 C2.33 18.42 2.66 9.84 3 1 C2.01 0.67 1.02 0.34 0 0 Z " fill="#4B2427" transform="translate(1215,701)"/>
<path d="M0 0 C0.66 0 1.32 0 2 0 C2 1.32 2 2.64 2 4 C2.99 4 3.98 4 5 4 C5 10.6 5 17.2 5 24 C3.35 24.33 1.7 24.66 0 25 C0 16.75 0 8.5 0 0 Z " fill="#482325" transform="translate(43,617)"/>
<path d="M0 0 C0.99 0 1.98 0 3 0 C3.68271293 8.35104207 4.15392039 16.61988971 4 25 C1.18079283 21.32277325 -0.12870947 19.30641991 -0.09765625 14.6484375 C-0.09443359 13.79765625 -0.09121094 12.946875 -0.08789062 12.0703125 C-0.07951172 11.18085937 -0.07113281 10.29140625 -0.0625 9.375 C-0.05798828 8.4778125 -0.05347656 7.580625 -0.04882812 6.65625 C-0.03702591 4.43743352 -0.02056155 2.21874982 0 0 Z " fill="#492329" transform="translate(1046,705)"/>
<path d="M0 0 C0 2.31 0 4.62 0 7 C-0.99 7 -1.98 7 -3 7 C-3.33 8.32 -3.66 9.64 -4 11 C-4.33 10.01 -4.66 9.02 -5 8 C-5.99 8.495 -5.99 8.495 -7 9 C-7.66 8.67 -8.32 8.34 -9 8 C-9 5.69 -9 3.38 -9 1 C-5.92677456 0.08941469 -3.19902639 -0.08886184 0 0 Z " fill="#272927" transform="translate(1206,686)"/>
<path d="M0 0 C6.52131148 0.89508197 6.52131148 0.89508197 9.28125 1.5 C12.62253839 2.11448982 15.92310033 2.34076357 19.3125 2.5625 C20.56675781 2.64628906 21.82101562 2.73007812 23.11328125 2.81640625 C24.54220703 2.90728516 24.54220703 2.90728516 26 3 C26 3.33 26 3.66 26 4 C23.36 4 20.72 4 18 4 C18 4.66 18 5.32 18 6 C14.37 6 10.74 6 7 6 C7 5.34 7 4.68 7 4 C5.68 4 4.36 4 3 4 C3 3.01 3 2.02 3 1 C2.01 0.67 1.02 0.34 0 0 Z " fill="#462228" transform="translate(1050,730)"/>
<path d="M0 0 C0 1.32 0 2.64 0 4 C1.32 4 2.64 4 4 4 C4 5.65 4 7.3 4 9 C1.03 9 -1.94 9 -5 9 C-5 6.36 -5 3.72 -5 1 C-2 0 -2 0 0 0 Z " fill="#3C1E22" transform="translate(12,622)"/>
<path d="M0 0 C1.32 0 2.64 0 4 0 C4 1.98 4 3.96 4 6 C2.68 6 1.36 6 0 6 C0 7.32 0 8.64 0 10 C-1.65 10 -3.3 10 -5 10 C-5 7.69 -5 5.38 -5 3 C-3.35 3 -1.7 3 0 3 C0 2.01 0 1.02 0 0 Z " fill="#242826" transform="translate(22,600)"/>
<path d="M0 0 C2.31 0 4.62 0 7 0 C7 2.64 7 5.28 7 8 C4.69 8 2.38 8 0 8 C0 5.36 0 2.72 0 0 Z " fill="#261A36" transform="translate(564,463)"/>
<path d="M0 0 C0.99 0 1.98 0 3 0 C3 0.99 3 1.98 3 3 C3.66 3 4.32 3 5 3 C5 4.65 5 6.3 5 8 C2.03 8 -0.94 8 -4 8 C-4 6.35 -4 4.7 -4 3 C-2.68 3 -1.36 3 0 3 C0 2.01 0 1.02 0 0 Z " fill="#3F1F23" transform="translate(31,622)"/>
<path d="M0 0 C2.31 0 4.62 0 7 0 C7 2.31 7 4.62 7 7 C4.69 7 2.38 7 0 7 C0 4.69 0 2.38 0 0 Z " fill="#7F7284" transform="translate(880,710)"/>
<path d="M0 0 C2.31 0 4.62 0 7 0 C7 2.31 7 4.62 7 7 C4.69 7 2.38 7 0 7 C0 4.69 0 2.38 0 0 Z " fill="#756C7C" transform="translate(303,655)"/>
<path d="M0 0 C2.31 0 4.62 0 7 0 C7 2.31 7 4.62 7 7 C4.69 7 2.38 7 0 7 C0 4.69 0 2.38 0 0 Z " fill="#837988" transform="translate(305,27)"/>
<path d="M0 0 C1.65 0.33 3.3 0.66 5 1 C5 2.98 5 4.96 5 7 C2.36 7 -0.28 7 -3 7 C-3 5.68 -3 4.36 -3 3 C-2.34 3 -1.68 3 -1 3 C-0.67 2.01 -0.34 1.02 0 0 Z " fill="#401E24" transform="translate(1187,707)"/>
<path d="M0 0 C1.98 0 3.96 0 6 0 C6 2.64 6 5.28 6 8 C4.02 8 2.04 8 0 8 C0 5.36 0 2.72 0 0 Z " fill="#2C1C35" transform="translate(627,707)"/>
<path d="M0 0 C2.31 0 4.62 0 7 0 C7 2.31 7 4.62 7 7 C5.00045254 7.04254356 2.99958364 7.04080783 1 7 C0 6 0 6 -0.0625 2.9375 C-0.041875 1.968125 -0.02125 0.99875 0 0 Z " fill="#281A38" transform="translate(577,462)"/>
<path d="M0 0 C1.32 0 2.64 0 4 0 C4 0.99 4 1.98 4 3 C5.32 3.33 6.64 3.66 8 4 C8 4.99 8 5.98 8 7 C5.36 7.33 2.72 7.66 0 8 C0 5.36 0 2.72 0 0 Z " fill="#402127" transform="translate(1058,708)"/>
<path d="M0 0 C1.98 0 3.96 0 6 0 C6.38133299 1.9914056 6.71325582 3.99279077 7 6 C6 7 6 7 2.9375 7.0625 C1.4834375 7.0315625 1.4834375 7.0315625 0 7 C0 4.69 0 2.38 0 0 Z " fill="#312343" transform="translate(1068,360)"/>
<path d="M0 0 C1.32 0 2.64 0 4 0 C4 0.99 4 1.98 4 3 C4.66 3 5.32 3 6 3 C6 4.65 6 6.3 6 8 C3.36 8 0.72 8 -2 8 C-2 6 -2 6 0 4 C0 2.68 0 1.36 0 0 Z " fill="#401E25" transform="translate(1080,704)"/>
<path d="M0 0 C1.98 0 3.96 0 6 0 C6 2.64 6 5.28 6 8 C1.125 7.125 1.125 7.125 0 6 C-0.04080783 4.00041636 -0.04254356 1.99954746 0 0 Z " fill="#2C1C35" transform="translate(639,706)"/>
<path d="M0 0 C0.33 0 0.66 0 1 0 C1.02505615 0.85754883 1.0501123 1.71509766 1.07592773 2.59863281 C1.17123412 5.7893437 1.27045751 8.97990219 1.37231445 12.17041016 C1.4155455 13.54959378 1.45722866 14.92882685 1.49731445 16.30810547 C1.55530403 18.29406938 1.61937723 20.27985269 1.68359375 22.265625 C1.72025146 23.45961914 1.75690918 24.65361328 1.79467773 25.88378906 C1.96294559 28.43761895 2.11714089 30.60534705 3 33 C3.66 33.33 4.32 33.66 5 34 C3.35 34 1.7 34 0 34 C0 22.78 0 11.56 0 0 Z " fill="#432323" transform="translate(0,616)"/>
<path d="M0 0 C2.31 0 4.62 0 7 0 C7 1.98 7 3.96 7 6 C4.69 6 2.38 6 0 6 C0 4.02 0 2.04 0 0 Z " fill="#75697B" transform="translate(413,599)"/>
<path d="M0 0 C1.98 0 3.96 0 6 0 C6 2.31 6 4.62 6 7 C4.02 7 2.04 7 0 7 C0 4.69 0 2.38 0 0 Z " fill="#756B7A" transform="translate(756,554)"/>
<path d="M0 0 C1.98 0 3.96 0 6 0 C6 2.31 6 4.62 6 7 C4.02 7 2.04 7 0 7 C0 4.69 0 2.38 0 0 Z " fill="#3A2E4C" transform="translate(550,319)"/>
<path d="M0 0 C1.98 0 3.96 0 6 0 C6 2.31 6 4.62 6 7 C4.02 7 2.04 7 0 7 C0 4.69 0 2.38 0 0 Z " fill="#756983" transform="translate(704,125)"/>
<path d="M0 0 C2.31 0 4.62 0 7 0 C7 1.98 7 3.96 7 6 C4.69 6 2.38 6 0 6 C0 4.02 0 2.04 0 0 Z " fill="#847A8B" transform="translate(1105,40)"/>
<path d="M0 0 C2.64 0 5.28 0 8 0 C8 1.65 8 3.3 8 5 C5.36 5 2.72 5 0 5 C0 3.35 0 1.7 0 0 Z " fill="#3D1D26" transform="translate(1202,709)"/>
<path d="M0 0 C1.65 0 3.3 0 5 0 C5 2.64 5 5.28 5 8 C3.35 8 1.7 8 0 8 C0 5.36 0 2.72 0 0 Z " fill="#271A3B" transform="translate(883,138)"/>
<path d="M0 0 C1.65 0 3.3 0 5 0 C5 2.64 5 5.28 5 8 C3.35 8 1.7 8 0 8 C0 5.36 0 2.72 0 0 Z " fill="#2A1D3D" transform="translate(895,138)"/>
<path d="M0 0 C0.66 0 1.32 0 2 0 C2 1.32 2 2.64 2 4 C2.99 4 3.98 4 5 4 C5 10.6 5 17.2 5 24 C4.67 24 4.34 24 4 24 C3.93941406 22.87980469 3.87882812 21.75960937 3.81640625 20.60546875 C3.73198576 19.13280016 3.64733851 17.66014456 3.5625 16.1875 C3.52318359 15.44951172 3.48386719 14.71152344 3.44335938 13.95117188 C3.25618965 10.76928658 3.01279207 8.03837622 2 5 C1.34 5 0.68 5 0 5 C0 3.35 0 1.7 0 0 Z " fill="#381C25" transform="translate(43,617)"/>
<path d="M0 0 C1.98 0 3.96 0 6 0 C6 1.98 6 3.96 6 6 C4.02 6 2.04 6 0 6 C0 4.02 0 2.04 0 0 Z " fill="#7E7486" transform="translate(157,729)"/>
<path d="M0 0 C1.98 0 3.96 0 6 0 C6 1.98 6 3.96 6 6 C4.02 6 2.04 6 0 6 C0 4.02 0 2.04 0 0 Z " fill="#382B47" transform="translate(433,597)"/>
<path d="M0 0 C1.98 0 3.96 0 6 0 C6 1.98 6 3.96 6 6 C4.02 6 2.04 6 0 6 C0 4.02 0 2.04 0 0 Z " fill="#887E8D" transform="translate(1126,595)"/>
<path d="M0 0 C1.98 0 3.96 0 6 0 C6 1.98 6 3.96 6 6 C4.02 6 2.04 6 0 6 C0 4.02 0 2.04 0 0 Z " fill="#6B6075" transform="translate(907,520)"/>
<path d="M0 0 C1.98 0 3.96 0 6 0 C6 1.98 6 3.96 6 6 C4.02 6 2.04 6 0 6 C0 4.02 0 2.04 0 0 Z " fill="#352B47" transform="translate(1304,495)"/>
<path d="M0 0 C1.98 0 3.96 0 6 0 C6 1.98 6 3.96 6 6 C4.02 6 2.04 6 0 6 C0 4.02 0 2.04 0 0 Z " fill="#362846" transform="translate(590,410)"/>
<path d="M0 0 C1.98 0 3.96 0 6 0 C6 1.98 6 3.96 6 6 C4.02 6 2.04 6 0 6 C0 4.02 0 2.04 0 0 Z " fill="#2C243F" transform="translate(1274,271)"/>
<path d="M0 0 C1.98 0 3.96 0 6 0 C6 1.98 6 3.96 6 6 C4.02 6 2.04 6 0 6 C0 4.02 0 2.04 0 0 Z " fill="#83758D" transform="translate(960,206)"/>
<path d="M0 0 C1.98 0 3.96 0 6 0 C6 1.98 6 3.96 6 6 C4.02 6 2.04 6 0 6 C0 4.02 0 2.04 0 0 Z " fill="#6E657A" transform="translate(198,133)"/>
<path d="M0 0 C1.98 0 3.96 0 6 0 C6 1.98 6 3.96 6 6 C4.02 6 2.04 6 0 6 C0 4.02 0 2.04 0 0 Z " fill="#29213D" transform="translate(229,107)"/>
<path d="M0 0 C1.98 0 3.96 0 6 0 C6 1.98 6 3.96 6 6 C4.02 6 2.04 6 0 6 C0 4.02 0 2.04 0 0 Z " fill="#8D8597" transform="translate(790,90)"/>
<path d="M0 0 C4.29 0 8.58 0 13 0 C13 0.99 13 1.98 13 3 C11.39667209 3.08121924 9.79215974 3.13929134 8.1875 3.1875 C7.29417969 3.22230469 6.40085937 3.25710938 5.48046875 3.29296875 C3 3 3 3 0 0 Z " fill="#492226" transform="translate(1202,697)"/>
<path d="M0 0 C1.98 0 3.96 0 6 0 C6 1.65 6 3.3 6 5 C4.02 5 2.04 5 0 5 C0 3.35 0 1.7 0 0 Z " fill="#817686" transform="translate(329,661)"/>
<path d="M0 0 C1.65 0 3.3 0 5 0 C5 1.98 5 3.96 5 6 C3.35 6 1.7 6 0 6 C0 4.02 0 2.04 0 0 Z " fill="#3D2F47" transform="translate(958,654)"/>
<path d="M0 0 C1.98 0 3.96 0 6 0 C6 1.65 6 3.3 6 5 C4.02 5 2.04 5 0 5 C0 3.35 0 1.7 0 0 Z " fill="#5B4F63" transform="translate(726,524)"/>
<path d="M0 0 C1.65 0 3.3 0 5 0 C5 1.98 5 3.96 5 6 C3.35 6 1.7 6 0 6 C0 4.02 0 2.04 0 0 Z " fill="#726E85" transform="translate(1338,493)"/>
<path d="M0 0 C1.65 0 3.3 0 5 0 C5 1.98 5 3.96 5 6 C3.35 6 1.7 6 0 6 C0 4.02 0 2.04 0 0 Z " fill="#2F2442" transform="translate(1103,465)"/>
<path d="M0 0 C1.98 0 3.96 0 6 0 C6 1.65 6 3.3 6 5 C4.02 5 2.04 5 0 5 C0 3.35 0 1.7 0 0 Z " fill="#5C5066" transform="translate(643,360)"/>
<path d="M0 0 C1.65 0 3.3 0 5 0 C5 1.98 5 3.96 5 6 C3.35 6 1.7 6 0 6 C0 4.02 0 2.04 0 0 Z " fill="#8B8493" transform="translate(1196,261)"/>
<path d="M0 0 C1.65 0 3.3 0 5 0 C5 1.98 5 3.96 5 6 C3.35 6 1.7 6 0 6 C0 4.02 0 2.04 0 0 Z " fill="#3E3550" transform="translate(1010,199)"/>
<path d="M0 0 C2.97 0 5.94 0 9 0 C9 0.99 9 1.98 9 3 C6.03 3 3.06 3 0 3 C0 2.01 0 1.02 0 0 Z " fill="#281C3B" transform="translate(887,149)"/>
<path d="M0 0 C2.97 0 5.94 0 9 0 C9 0.99 9 1.98 9 3 C6.03 3 3.06 3 0 3 C0 2.01 0 1.02 0 0 Z " fill="#281C38" transform="translate(571,473)"/>
<path d="M0 0 C1.65 0 3.3 0 5 0 C5 1.65 5 3.3 5 5 C3.35 5 1.7 5 0 5 C0 3.35 0 1.7 0 0 Z " fill="#938696" transform="translate(942,661)"/>
<path d="M0 0 C1.65 0 3.3 0 5 0 C5 1.65 5 3.3 5 5 C3.35 5 1.7 5 0 5 C0 3.35 0 1.7 0 0 Z " fill="#594E63" transform="translate(412,621)"/>
<path d="M0 0 C1.65 0 3.3 0 5 0 C5 1.65 5 3.3 5 5 C3.35 5 1.7 5 0 5 C0 3.35 0 1.7 0 0 Z " fill="#73677B" transform="translate(781,457)"/>
<path d="M0 0 C1.65 0 3.3 0 5 0 C5 1.65 5 3.3 5 5 C3.35 5 1.7 5 0 5 C0 3.35 0 1.7 0 0 Z " fill="#463E5A" transform="translate(989,169)"/>
<path d="M0 0 C-0.33 1.65 -0.66 3.3 -1 5 C-1.99 5.33 -2.98 5.66 -4 6 C-4.66 5.67 -5.32 5.34 -6 5 C-5.625 3.0625 -5.625 3.0625 -5 1 C-3 0 -3 0 0 0 Z " fill="#352742" transform="translate(1287,137)"/>
<path d="M0 0 C1.65 0 3.3 0 5 0 C5 1.65 5 3.3 5 5 C3.35 5 1.7 5 0 5 C0 3.35 0 1.7 0 0 Z " fill="#9B919F" transform="translate(1130,87)"/>
<path d="M0 0 C1.65 0 3.3 0 5 0 C5 1.65 5 3.3 5 5 C3.35 5 1.7 5 0 5 C0 3.35 0 1.7 0 0 Z " fill="#524C65" transform="translate(319,54)"/>
<path d="M0 0 C2.64 0 5.28 0 8 0 C8 0.99 8 1.98 8 3 C5.36 3 2.72 3 0 3 C0 2.01 0 1.02 0 0 Z " fill="#2B1C34" transform="translate(633,717)"/>
<path d="M0 0 C1.65 0 3.3 0 5 0 C5 1.65 5 3.3 5 5 C3.35 4.67 1.7 4.34 0 4 C0 2.68 0 1.36 0 0 Z " fill="#31263C" transform="translate(26,102)"/>
<path d="M0 0 C0.99 0.33 1.98 0.66 3 1 C2.67 2.65 2.34 4.3 2 6 C0.68 5.67 -0.64 5.34 -2 5 C-2 3.68 -2 2.36 -2 1 C-1.34 0.67 -0.68 0.34 0 0 Z " fill="#3D304E" transform="translate(479,112)"/>
<path d="M0 0 C0.66 1.32 1.32 2.64 2 4 C1.01 4.33 0.02 4.66 -1 5 C-1 5.66 -1 6.32 -1 7 C1.64 7 4.28 7 7 7 C7 7.33 7 7.66 7 8 C4.03 8 1.06 8 -2 8 C-2.20086443 4.28400809 -2.1519437 3.22791555 0 0 Z " fill="#512825" transform="translate(1079,705)"/>
<path d="M0 0 C1.32 0 2.64 0 4 0 C4 1.65 4 3.3 4 5 C2.68 5 1.36 5 0 5 C0 3.35 0 1.7 0 0 Z " fill="#382A49" transform="translate(1246,427)"/>
<path d="M0 0 C1.134375 0.020625 2.26875 0.04125 3.4375 0.0625 C3.4375 1.0525 3.4375 2.0425 3.4375 3.0625 C2.90125 2.835625 2.365 2.60875 1.8125 2.375 C-1.62331901 1.92291855 -3.62016694 3.39071985 -6.5625 5.0625 C-4.14811644 0.07277397 -4.14811644 0.07277397 0 0 Z " fill="#32223F" transform="translate(1291.5625,414.9375)"/>
<path d="M0 0 C1.32 0 2.64 0 4 0 C4 1.65 4 3.3 4 5 C2.68 5 1.36 5 0 5 C0 3.35 0 1.7 0 0 Z " fill="#564F66" transform="translate(1174,295)"/>
<path d="M0 0 C1.65 0 3.3 0 5 0 C5 1.32 5 2.64 5 4 C3.35 4 1.7 4 0 4 C0 2.68 0 1.36 0 0 Z " fill="#6C6476" transform="translate(103,288)"/>
<path d="M0 0 C1.32 0 2.64 0 4 0 C4 1.65 4 3.3 4 5 C2.68 5 1.36 5 0 5 C0 3.35 0 1.7 0 0 Z " fill="#928995" transform="translate(314,277)"/>
<path d="M0 0 C1.32 0 2.64 0 4 0 C4 1.65 4 3.3 4 5 C2.68 5 1.36 5 0 5 C0 3.35 0 1.7 0 0 Z " fill="#342842" transform="translate(1273,135)"/>
<path d="M0 0 C1.65 0 3.3 0 5 0 C4.67 1.32 4.34 2.64 4 4 C2.68 4 1.36 4 0 4 C0 2.68 0 1.36 0 0 Z " fill="#332743" transform="translate(1271,443)"/>
<path d="M0 0 C1.32 0 2.64 0 4 0 C3.67 1.65 3.34 3.3 3 5 C2.01 5 1.02 5 0 5 C0 3.35 0 1.7 0 0 Z " fill="#362747" transform="translate(1256,430)"/>
<path d="M0 0 C1.32 0 2.64 0 4 0 C4 1.32 4 2.64 4 4 C2.35 4 0.7 4 -1 4 C-0.67 2.68 -0.34 1.36 0 0 Z " fill="#4B445C" transform="translate(77,269)"/>
<path d="M0 0 C1.32 0.33 2.64 0.66 4 1 C4 2.32 4 3.64 4 5 C2.68 5 1.36 5 0 5 C0 3.35 0 1.7 0 0 Z " fill="#403350" transform="translate(469,113)"/>
<path d="M0 0 C1.98 0 3.96 0 6 0 C6 0.99 6 1.98 6 3 C5.34 3 4.68 3 4 3 C3.67 3.99 3.34 4.98 3 6 C2.87625 5.195625 2.7525 4.39125 2.625 3.5625 C2.315625 2.2940625 2.315625 2.2940625 2 1 C1.34 0.67 0.68 0.34 0 0 Z " fill="#482427" transform="translate(1082,717)"/>
<path d="M0 0 C1.65 0 3.3 0 5 0 C4.67 1.32 4.34 2.64 4 4 C2.68 4 1.36 4 0 4 C0 2.68 0 1.36 0 0 Z " fill="#7F7588" transform="translate(199,134)"/>
<path d="M0 0 C1.65 0 3.3 0 5 0 C4.67 1.32 4.34 2.64 4 4 C2.68 4 1.36 4 0 4 C0 2.68 0 1.36 0 0 Z " fill="#322A46" transform="translate(230,108)"/>
</svg>
